<?xml version="1.0" encoding="UTF-8"?>
<svg id="Calque_1" data-name="Calque 1" xmlns="http://www.w3.org/2000/svg" version="1.1" viewBox="0 0 65.2 59.5">
  <defs>
    <style>
      .cls-1 {
        fill: #7b7575;
        stroke-width: 0px;
      }
    </style>
  </defs>
  <path class="cls-1" d="M32.6,20.2h21.1c6,0,10,4,10,10v18.3c0,5.9-4.1,10-10,10H11.5c-5.9,0-10-4.1-10-10,0-6.2,0-12.4,0-18.5,0-5.7,4.1-9.8,9.7-9.8,7.1,0,14.2,0,21.3,0h0Z"/>
  <path class="cls-1" d="M57.6,15.4c-16.7-.1-33.4-.1-50.1,0,1.4-2.6,3.8-4.2,6.9-4.7.6,0,1.2-.1,1.8-.1,10.9,0,21.8,0,32.7,0,3.4,0,6.2,1.3,8.2,4,.2.3.4.7.5.8h0Z"/>
  <path class="cls-1" d="M12.3,6c1.5-2.5,3.6-4.1,6.4-4.7.8-.2,1.5-.2,2.3-.2,7.8,0,15.5,0,23.3,0,3.2,0,5.9,1.3,7.9,3.8.3.3.5.7.7,1.1H12.3Z"/>
</svg>