<?xml version="1.0" encoding="UTF-8"?>
<svg id="Calque_1" data-name="Calque 1" xmlns="http://www.w3.org/2000/svg" xmlns:xlink="http://www.w3.org/1999/xlink" viewBox="0 0 60.92 65.24">
  <defs>
    <style>
      .cls-1 {
        fill: #070ec2;
      }

      .cls-1, .cls-2 {
        stroke-width: 0px;
      }

      .cls-2 {
        fill: url(#Dégradé_sans_nom_10);
      }
    </style>
    <linearGradient id="Dégradé_sans_nom_10" data-name="Dégradé sans nom 10" x1="0" y1="43.64" x2="40.39" y2="43.64" gradientUnits="userSpaceOnUse">
      <stop offset="0" stop-color="#868ada"/>
      <stop offset=".47" stop-color="#2026c5"/>
      <stop offset="1" stop-color="#070ec2"/>
    </linearGradient>
  </defs>
  <path class="cls-2" d="M20.3,65.24c-7.97,0-13.8-.77-17.5-2.3-1.87-.82-2.81-1.61-2.81-2.38,0-1.97.58-4.27,1.73-6.91,1.15-2.64,2.16-3.96,3.02-3.96.48,0,2.1.53,4.86,1.58,2.76,1.06,5.09,1.58,6.98,1.58s3.14-.12,3.74-.36c.6-.24.9-.71.9-1.4s-.48-1.25-1.44-1.66c-.96-.41-2.16-.68-3.6-.83-1.44-.14-2.99-.43-4.64-.86-1.66-.43-3.2-.98-4.64-1.66-1.44-.67-2.64-1.79-3.6-3.35-.96-1.56-1.44-3.24-1.44-5.04s.05-3.14.14-4.03c.1-.89.49-2.14,1.19-3.74.7-1.61,1.68-2.92,2.95-3.92,1.27-1.01,3.24-1.92,5.9-2.74,2.66-.82,5.65-1.22,8.96-1.22s6.08.11,8.32.32,3.98.49,5.26.83c1.27.34,2.32.72,3.13,1.15,1.39.72,2.09,1.51,2.09,2.38,0,1.87-.67,4.03-2.02,6.48-1.34,2.45-2.41,3.67-3.2,3.67s-2.51-.42-5.15-1.26c-2.64-.84-4.58-1.26-5.83-1.26-2.02,0-3.02.58-3.02,1.73,0,.72.68,1.26,2.05,1.62,1.37.36,3.01.73,4.93,1.12,1.92.38,3.85.92,5.8,1.62,1.94.7,3.6,1.96,4.97,3.78,1.37,1.82,2.05,4.13,2.05,6.91,0,9.41-6.7,14.11-20.09,14.11Z"/>
  <path class="cls-1" d="M38.35,15.06l-2.27-1.7.85-3.02-4.12-3.09-2.61,1.71-2.21-1.65L39.74,0l2.2,1.65-3.59,13.41ZM37.57,8.1l1.44-4.89-4.26,2.79,2.81,2.11Z"/>
  <path class="cls-1" d="M47.57,32.35l12.83-1.17.38,4.16c.14,1.58.17,2.61.09,3.1-.13.75-.49,1.41-1.09,1.96s-1.41.88-2.43.97c-.79.07-1.46-.01-2.03-.25s-1.02-.56-1.36-.97c-.35-.41-.59-.84-.73-1.29-.18-.61-.32-1.5-.43-2.67l-.15-1.69-4.84.44-.24-2.59ZM58.47,33.96l-3.64.33.13,1.42c.09,1.02.22,1.7.39,2.03s.4.58.7.75c.3.17.65.24,1.02.2.47-.04.84-.22,1.12-.52s.44-.67.47-1.09c.03-.31,0-.94-.08-1.87l-.11-1.25Z"/>
  <path class="cls-1" d="M41.71,18.55l11.4-6.01,1.95,3.69c.74,1.4,1.16,2.34,1.27,2.83.17.74.09,1.49-.25,2.23s-.96,1.35-1.87,1.83c-.7.37-1.35.55-1.97.55s-1.16-.13-1.63-.38c-.48-.25-.87-.55-1.17-.91-.4-.49-.87-1.26-1.42-2.3l-.79-1.5-4.3,2.27-1.21-2.3ZM52.39,15.85l-3.23,1.71.66,1.26c.48.91.86,1.48,1.14,1.72s.59.38.94.42c.35.04.69-.03,1.02-.21.41-.22.69-.52.83-.91s.15-.78.02-1.19c-.09-.3-.36-.87-.8-1.7l-.59-1.11Z"/>
</svg>