<?xml version="1.0" encoding="UTF-8"?>
<svg id="Calque_1" data-name="Calque 1" xmlns="http://www.w3.org/2000/svg" version="1.1" viewBox="0 0 65.2 59.5">
  <defs>
    <style>
      .cls-1 {
        fill: #6edbe8;
        stroke-width: 0px;
      }
    </style>
  </defs>
  <path class="cls-1" d="M7.2,38.2v-15.7c0-3.2,2.3-5.5,5.4-5.5h27.3c2.8,0,4.9,1.8,5.3,4.6,0,.5.1.9.1,1.4,0,10.2,0,20.5,0,30.7,0,2.9-1.3,4.9-3.8,5.7-.7.2-1.4.2-2.1.2-8.9,0-17.7,0-26.6,0-3.6,0-5.7-2.2-5.7-5.8v-15.5h0ZM23.9,41.5c-.8-.9-1.5-1.7-2.2-2.4-1-1-2.3-1.1-3.2-.2-.9.9-.9,2.2.2,3.2,1.2,1.2,2.4,2.4,3.5,3.6,1.6,1.6,2.8,1.5,4.2-.3,2.3-2.9,4.6-5.7,6.9-8.6.4-.5.8-1,1.2-1.5.7-1,.5-2.2-.4-3-.8-.6-2.1-.6-2.8.3-1.3,1.5-2.6,3.2-3.8,4.7-1.1,1.3-2.2,2.7-3.4,4.2h0Z"/>
  <path class="cls-1" d="M49.6,48.8v-26.2c0-5.7-4.2-9.9-9.9-9.9h-19.8c0-1.9.6-3.5,1.8-4.9,1.6-1.9,3.6-3,6.1-3.1.9,0,1.6-.3,2.2-1.2C31.5,1.4,33.7.1,36.4,0c2.1,0,4.2,0,6.3.2,2.3.3,4.1,1.7,5.4,3.6.5.7,1,.9,1.7.9,1.9,0,3.6.6,5.1,1.8,1.9,1.5,3.1,3.6,3.1,6,0,9.5,0,18.9,0,28.4,0,4.1-3.5,7.6-7.6,7.9-.2,0-.4,0-.7,0ZM39,8.6c1.9,0,3.7,0,5.6,0,.7,0,.9-.2.7-.9-.3-1.7-1.6-3.2-3.3-3.3-2-.2-4.1-.1-6.2,0-1.6.1-2.9,1.8-3.1,3.3,0,.6,0,.8.7.8,1.9,0,3.7,0,5.6,0h0Z"/>
</svg>