<?xml version="1.0" encoding="UTF-8"?>
<svg id="Calque_1" data-name="Calque 1" xmlns="http://www.w3.org/2000/svg" version="1.1" viewBox="0 0 65.2 59.5">
  <defs>
    <style>
      .cls-1 {
        fill: #ffd24c;
        stroke-width: 0px;
      }
    </style>
  </defs>
  <path class="cls-1" d="M33.2.5c6.3,0,13.2.5,20.1,1.5,6,.9,10.2,5.6,10.3,11.9,0,6.1,0,12.2,0,18.3,0,6.4-4.3,11.2-10.5,11.9-5.4.6-10.8.9-16.2,1.5-.7,0-1.5.4-2,.9-3.9,3.8-7.7,7.7-11.5,11.6-.8.8-1.7,1.3-2.8.9-1.1-.5-1.4-1.5-1.4-2.7,0-3.4,0-6.8,0-10.2,0-.8-.2-1.1-1-1.2-2.3-.2-4.6-.5-6.9-.9-5.6-.9-9.7-5.7-9.8-11.5,0-6.2,0-12.5,0-18.7C1.7,7.6,6,2.8,12,2c6.9-1,13.7-1.5,21.2-1.5ZM24.9,23c0-1.9-1.5-3.4-3.4-3.4-1.9,0-3.4,1.5-3.3,3.4,0,1.9,1.5,3.4,3.4,3.4s3.3-1.5,3.3-3.4h0ZM29.3,23c0,1.9,1.5,3.4,3.3,3.4s3.3-1.5,3.4-3.4c0-1.8-1.5-3.4-3.3-3.4s-3.4,1.5-3.4,3.4ZM40.4,23c0,1.9,1.5,3.4,3.3,3.4s3.3-1.5,3.3-3.4-1.5-3.4-3.3-3.4-3.3,1.5-3.3,3.4Z"/>
</svg>