<?xml version="1.0" encoding="UTF-8"?>
<svg id="Calque_1" data-name="Calque 1" xmlns="http://www.w3.org/2000/svg" version="1.1" viewBox="0 0 65.2 59.5">
  <defs>
    <style>
      .cls-1 {
        fill: #58a68a;
        stroke-width: 0px;
      }
    </style>
  </defs>
  <path class="cls-1" d="M25.4,51c0-1.7,0-3.5,0-5.2,0-.4-.3-.9-.6-1.3-2-2.1-4.1-4.2-6.2-6.2-.3-.3-.9-.6-1.4-.6-3.4,0-6.7,0-10.1,0-1.9,0-2.6-.7-2.6-2.6.2-10.9,10.2-19.5,21-18.1.6,0,.9,0,1.3-.5,6.8-8.3,15.5-13.6,26-15.6,2.6-.5,5.2-.6,7.9-.8,1.5-.1,2.3.8,2.3,2.3-.1,11.6-4.2,21.6-12.2,30.1-1.3,1.4-2.7,2.6-4.1,3.8-.4.4-.6.7-.5,1.3,1.4,10.8-7.2,20.7-18.1,21-1.8,0-2.6-.7-2.6-2.5v-5h0ZM42,14.7c-3.4,0-6.3,2.8-6.3,6.3,0,3.4,2.8,6.3,6.2,6.3,3.4,0,6.4-2.9,6.3-6.3,0-3.4-2.9-6.3-6.3-6.3Z"/>
  <path class="cls-1" d="M10.7,52.3c3.4,0,6-1.4,8.1-3.8.2-.2.3-.4.5-.6.8-.8,1.9-.8,2.8-.2s1.1,1.8.5,2.7c-3.2,4.7-9.1,6.8-14.2,5.8-.9-.2-1.5-.8-1.6-1.7-.7-5.7,1.2-10.3,5.6-13.8,1-.8,2.2-.6,3,.3.8,1,.6,2.2-.5,3-2.2,1.7-3.5,4-4,6.7,0,.5,0,1-.1,1.6h0Z"/>
</svg>