<?xml version="1.0" encoding="UTF-8"?>
<svg id="Calque_1" data-name="Calque 1" xmlns="http://www.w3.org/2000/svg" version="1.1" viewBox="0 0 65.2 59.5">
  <defs>
    <style>
      .cls-1 {
        fill: #ef825e;
        stroke-width: 0px;
      }
    </style>
  </defs>
  <path class="cls-1" d="M58.9,24.7c0,1.2,0,2.7,0,4.1,0,1.5-1.1,2.3-2.5,1.8-.8-.2-1.5-.7-2.2-1.2-1.8-1.1-3.7-1.1-5.4.2-3.2,2.4-3.3,8.1-.2,10.6,1.7,1.4,3.7,1.5,5.6.3.7-.4,1.4-.9,2.2-1.2,1.3-.5,2.3.3,2.2,1.7-.5,4.5-1.1,9-1.7,13.5-.1,1.1-.9,1.6-1.9,1.8-5,.6-9.9,1.2-14.9,1.7-1.8.2-2.6-1-1.9-2.7.2-.4.4-.9.7-1.2,2.6-3.2.8-7.2-3.2-8.2-2.3-.6-4.5-.3-6.4,1.2-2.1,1.7-2.5,4.3-1.1,6.5.7,1.1,1.7,2.3,1,3.7-.8,1.5-2.3.9-3.5.8-3.6-.2-7.2-.5-10.8-.9-1.9-.2-2.4-1.1-2.2-3,.6-4.2,1.1-8.3,1.6-12.5,0-.7-.2-1.9-.7-2.2-.6-.3-1.6,0-2.5.2-.2,0-.4.2-.6.3-2.6,2.3-6.8,1.5-8.1-3-.7-2.4-.3-4.7,1.3-6.6,1.7-2,4.1-2.3,6.3-.9.5.3.9.6,1.4.9,2,.9,3.4,0,3.3-2.1-.2-4.1-.5-8.2-.8-12.3-.2-2.4.6-3.2,3.1-2.9,3.4.3,6.7.5,10.1.7,2,.1,2.9-1.2,2.1-3.1-.2-.6-.6-1.1-.9-1.6-1.3-2.1-1.1-4.4.7-6.1,2.5-2.5,7.1-2.4,9.5,0,1.7,1.7,1.9,3.9.7,5.9-.3.6-.7,1.1-1,1.7-.8,1.9,0,3.1,2,2.9,4.7-.5,9.4-1,14-1.6,2.9-.4,3.6,0,3.8,2.9.3,3.2.6,6.4.9,9.9h0Z"/>
</svg>