<?xml version="1.0" encoding="UTF-8"?>
<svg id="Calque_1" data-name="Calque 1" xmlns="http://www.w3.org/2000/svg" viewBox="0 0 275.87 74.13">
  <defs>
    <style>
      .cls-1 {
        fill: #070ec2;
      }

      .cls-1, .cls-2 {
        stroke-width: 0px;
      }

      .cls-2 {
        fill: url(#Dégradé_sans_nom_10);
      }
    </style>
    <linearGradient id="Dégradé_sans_nom_10" data-name="Dégradé sans nom 10" x1="0" y1="40.83" x2="256.89" y2="40.83" gradientUnits="userSpaceOnUse">
      <stop offset="0" stop-color="#868ada"/>
      <stop offset=".47" stop-color="#2026c5"/>
      <stop offset="1" stop-color="#070ec2"/>
    </linearGradient>
  </defs>
  <path class="cls-2" d="M20.3,64.34c-7.97,0-13.8-.77-17.5-2.3-1.87-.82-2.81-1.61-2.81-2.38,0-1.97.58-4.27,1.73-6.91,1.15-2.64,2.16-3.96,3.02-3.96.48,0,2.1.53,4.86,1.58,2.76,1.06,5.09,1.58,6.98,1.58s3.14-.12,3.74-.36c.6-.24.9-.71.9-1.4s-.48-1.25-1.44-1.66c-.96-.41-2.16-.68-3.6-.83-1.44-.14-2.99-.43-4.64-.86-1.66-.43-3.2-.98-4.64-1.66-1.44-.67-2.64-1.79-3.6-3.35-.96-1.56-1.44-3.24-1.44-5.04s.05-3.14.14-4.03c.1-.89.49-2.14,1.19-3.74.7-1.61,1.68-2.92,2.95-3.92,1.27-1.01,3.24-1.92,5.9-2.74,2.66-.82,5.65-1.22,8.96-1.22s6.08.11,8.32.32,3.98.49,5.26.83c1.27.34,2.32.72,3.13,1.15,1.39.72,2.09,1.51,2.09,2.38,0,1.87-.67,4.03-2.02,6.48-1.34,2.45-2.41,3.67-3.2,3.67s-2.51-.42-5.15-1.26c-2.64-.84-4.58-1.26-5.83-1.26-2.02,0-3.02.58-3.02,1.73,0,.72.68,1.26,2.05,1.62,1.37.36,3.01.73,4.93,1.12,1.92.38,3.85.92,5.8,1.62,1.94.7,3.6,1.96,4.97,3.78,1.37,1.82,2.05,4.13,2.05,6.91,0,9.41-6.7,14.11-20.09,14.11ZM60.12,63.22c-2.69.31-5.5.47-8.42.47s-4.82-.13-5.69-.4c-.86-.26-1.3-.71-1.3-1.33V12.14c0-1.06,1.36-2.09,4.07-3.1,2.71-1.01,5.63-1.51,8.75-1.51,4.42,0,6.62,1.1,6.62,3.31v26.93h.94c2.3-10.99,4.01-16.49,5.11-16.49,2.78,0,6.14.65,10.08,1.94,3.94,1.3,5.9,2.74,5.9,4.32,0,1.15-.96,3.36-2.88,6.62-1.92,3.26-3.91,5.93-5.98,7.99,6.86,8.21,10.3,13.08,10.3,14.62,0,1.44-2.19,3.19-6.55,5.26-4.37,2.06-7.44,3.1-9.22,3.1-.86,0-1.78-1.04-2.74-3.13-.96-2.09-1.99-5.22-3.1-9.4l-1.87,2.23v7.13c0,.53-1.34.95-4.03,1.26ZM100.51,7.53c3.17,0,5.65.47,7.45,1.4,1.8.94,2.7,2.63,2.7,5.08,0,4.32-3.36,6.48-10.08,6.48s-10.08-2.16-10.08-6.48,3.34-6.48,10.01-6.48ZM110.3,26.46v35.5c0,.53-1.38.95-4.14,1.26-2.76.31-5.59.47-8.5.47s-4.78-.13-5.62-.4c-.84-.26-1.26-.71-1.26-1.33V27.76c0-1.05,1.36-2.1,4.07-3.13,2.71-1.03,5.68-1.55,8.89-1.55,4.37,0,6.55,1.13,6.55,3.38ZM135.14,10.84v51.12c0,.53-1.37.95-4.1,1.26s-5.56.47-8.46.47-4.78-.13-5.62-.4c-.84-.26-1.26-.71-1.26-1.33V12.14c0-1.06,1.36-2.09,4.07-3.1,2.71-1.01,5.63-1.51,8.75-1.51,4.42,0,6.62,1.1,6.62,3.31ZM159.62,10.84v51.12c0,.53-1.37.95-4.1,1.26-2.74.31-5.56.47-8.46.47s-4.78-.13-5.62-.4c-.84-.26-1.26-.71-1.26-1.33V12.14c0-1.06,1.36-2.09,4.07-3.1s5.63-1.51,8.75-1.51c4.42,0,6.62,1.1,6.62,3.31ZM179.13,64.34c-5.38,0-9.13-1.39-11.27-4.18-2.14-2.78-3.2-7.63-3.2-14.54v-19.58c0-.96,1.42-1.88,4.25-2.77,2.83-.89,5.81-1.33,8.93-1.33,4.18,0,6.26,1.08,6.26,3.24v18.29c0,3.65.14,6.3.43,7.96s1.01,2.48,2.16,2.48c1.54,0,2.3-.65,2.3-1.94v-25.92c0-1.01,1.49-1.94,4.46-2.81,2.98-.86,6.22-1.3,9.72-1.3s5.26.94,5.26,2.81v37.08c0,.67-1.51,1.15-4.54,1.44-3.02.29-6,.43-8.93.43s-4.42-.38-4.46-1.15l-.72-4.68h-.58c-.43,1.73-1.3,3.14-2.59,4.25-.67.58-1.67,1.09-2.99,1.55-1.32.46-2.82.68-4.5.68ZM213.48,72.4V26.61c0-1.01,1.34-2.04,4.03-3.1,2.69-1.06,5.59-1.58,8.71-1.58,1.44,0,2.57.17,3.38.5.82.34,1.32.67,1.51,1.01.19.34.55,1.78,1.08,4.32h.58c.1-.43.53-1.1,1.3-2.02.77-.91,1.55-1.66,2.34-2.23.79-.58,1.93-1.09,3.42-1.55,1.49-.46,3.23-.68,5.22-.68s3.8.44,5.44,1.33c1.63.89,2.84,1.92,3.64,3.1.79,1.18,1.42,2.66,1.87,4.46.46,1.8.72,3.24.79,4.32s.11,2.64.11,4.68-.07,4.06-.22,6.05c-.14,1.99-.41,4.02-.79,6.08-.38,2.06-.94,3.84-1.66,5.33-.72,1.49-1.63,2.83-2.74,4.03-2.21,2.4-5.45,3.6-9.72,3.6-1.54,0-2.89-.23-4.07-.68-1.18-.46-2.05-1-2.63-1.62-1.2-1.3-1.9-2.45-2.09-3.46l-.07-.72h-.58l1.01,6.48v8.14c0,.53-1.38.95-4.14,1.26-2.76.31-5.59.47-8.5.47s-4.84-.13-5.8-.4c-.96-.26-1.44-.71-1.44-1.33ZM236.73,34.02c-.43-1.63-1.08-2.45-1.94-2.45s-1.49.48-1.87,1.44v18.86c0,1.25.65,1.87,1.94,1.87,1.68,0,2.52-3.72,2.52-11.16,0-4.08-.22-6.94-.65-8.57Z"/>
  <path class="cls-1" d="M253.3,15.06l-2.27-1.7.85-3.02-4.12-3.09-2.61,1.71-2.21-1.65,11.74-7.31,2.2,1.65-3.59,13.41ZM252.52,8.1l1.44-4.89-4.26,2.79,2.81,2.11Z"/>
  <path class="cls-1" d="M262.52,32.35l12.83-1.17.38,4.16c.14,1.58.17,2.61.09,3.1-.13.75-.49,1.41-1.09,1.96s-1.41.88-2.43.97c-.79.07-1.46-.01-2.03-.25s-1.02-.56-1.36-.97c-.35-.41-.59-.84-.73-1.29-.18-.61-.32-1.5-.43-2.67l-.15-1.69-4.84.44-.24-2.59ZM273.42,33.96l-3.64.33.13,1.42c.09,1.02.22,1.7.39,2.03s.4.58.7.75c.3.17.65.24,1.02.2.47-.04.84-.22,1.12-.52s.44-.67.47-1.09c.03-.31,0-.94-.08-1.87l-.11-1.25Z"/>
  <path class="cls-1" d="M256.66,18.55l11.4-6.01,1.95,3.69c.74,1.4,1.16,2.34,1.27,2.83.17.74.09,1.49-.25,2.23s-.96,1.35-1.87,1.83c-.7.37-1.35.55-1.97.55s-1.16-.13-1.63-.38c-.48-.25-.87-.55-1.17-.91-.4-.49-.87-1.26-1.42-2.3l-.79-1.5-4.3,2.27-1.21-2.3ZM267.34,15.85l-3.23,1.71.66,1.26c.48.91.86,1.48,1.14,1.72s.59.38.94.42c.35.04.69-.03,1.02-.21.41-.22.69-.52.83-.91s.15-.78.02-1.19c-.09-.3-.36-.87-.8-1.7l-.59-1.11Z"/>
</svg>